<svg width="48" height="48" viewBox="0 0 48 48" fill="none" xmlns="http://www.w3.org/2000/svg">
<rect width="48" height="48" rx="10" fill="url(#paint0_linear_1881_4228)"/>
<path fill-rule="evenodd" clip-rule="evenodd" d="M16.5 11.619V36.381C16.5 37.8274 17.6543 39 19.0781 39H36.4219C37.8457 39 39 37.8274 39 36.381V15.8918C39 15.1922 38.7245 14.5217 38.2348 14.0297L33.9823 9.75695C33.4997 9.272 32.8482 9 32.1694 9H19.0781C17.6543 9 16.5 10.1726 16.5 11.619ZM18.1406 36.381V11.619C18.1406 11.0931 18.5604 10.6667 19.0781 10.6667H31.8516V16.381C31.8516 17.3672 32.6386 18.1667 33.6094 18.1667H37.3594V36.381C37.3594 36.9069 36.9396 37.3333 36.4219 37.3333H19.0781C18.5604 37.3333 18.1406 36.9069 18.1406 36.381ZM37.3594 16.5V15.8918C37.3594 15.6374 37.2592 15.3936 37.0811 15.2147L33.4922 11.6086V16.381C33.4922 16.4467 33.5447 16.5 33.6094 16.5H37.3594Z" fill="white"/>
<path fill-rule="evenodd" clip-rule="evenodd" d="M28.2188 21.3047C28.2188 20.8516 28.586 20.4844 29.0391 20.4844H34.4297C34.8827 20.4844 35.25 20.8516 35.25 21.3047C35.25 21.7577 34.8827 22.125 34.4297 22.125H29.0391C28.586 22.125 28.2188 21.7577 28.2188 21.3047Z" fill="#81F9BB"/>
<path fill-rule="evenodd" clip-rule="evenodd" d="M28.2188 25.0547C28.2188 24.6016 28.586 24.2344 29.0391 24.2344H34.4297C34.8827 24.2344 35.25 24.6016 35.25 25.0547C35.25 25.5077 34.8827 25.875 34.4297 25.875H29.0391C28.586 25.875 28.2188 25.5077 28.2188 25.0547Z" fill="#B3FFD6"/>
<path fill-rule="evenodd" clip-rule="evenodd" d="M28.2188 28.8047C28.2188 28.3516 28.586 27.9844 29.0391 27.9844H34.4297C34.8827 27.9844 35.25 28.3516 35.25 28.8047C35.25 29.2577 34.8827 29.625 34.4297 29.625H29.0391C28.586 29.625 28.2188 29.2577 28.2188 28.8047Z" fill="#C1FFD9"/>
<path d="M9 17.6719C9 16.8952 9.6296 16.2656 10.4062 16.2656H24.4688C25.2454 16.2656 25.875 16.8952 25.875 17.6719V31.7344C25.875 32.511 25.2454 33.1406 24.4688 33.1406H10.4062C9.6296 33.1406 9 32.511 9 31.7344V17.6719Z" fill="#3D8A58"/>
<path d="M13.6875 29.4108L16.3215 24.5081L13.931 20.0156H15.7511L17.2956 23.0341L18.808 20.0156H20.6089L18.2184 24.5786L20.8524 29.4108H18.9747L17.2635 26.1616L15.5524 29.4108H13.6875Z" fill="white"/>
<defs>
<linearGradient id="paint0_linear_1881_4228" x1="11.52" y1="-25.44" x2="57.6099" y2="-16.8425" gradientUnits="userSpaceOnUse">
<stop stop-color="#00CA81"/>
<stop offset="1" stop-color="#36EA33"/>
</linearGradient>
</defs>
</svg>
